# xmcd CD database file
#
# Track frame offsets:
#	150
#	6115
#	53850
#	100910
#	125852
#	170082
#	206440
#
# Disc length: 3299 seconds
#
# Revision: 0
# Processed by: cddbd v1.5PL3 Copyright (c) Steve Scherf et al.
# Submitted via: CDex 1.51
#
DISCID=5f0ce107
DTITLE=Timeless All Stars - It's Timeless
DYEAR=1983
DGENRE=Jazz
TTITLE0=Introduction
TTITLE1=Clockwise
TTITLE2=Stella By Starlight
TTITLE3=Lover Man
TTITLE4=My Foolish Heart
TTITLE5=Highway One
TTITLE6=Arabla
EXTD=YEAR: 1983
EXTT0=
EXTT1=
EXTT2=
EXTT3=
EXTT4=
EXTT5=
EXTT6=
PLAYORDER=
